<?xml version="1.0" ?><!DOCTYPE svg  PUBLIC '-//W3C//DTD SVG 1.1//EN'  'http://www.w3.org/Graphics/SVG/1.1/DTD/svg11.dtd'><svg enable-background="new 0 0 512 512" height="512px" id="Penguin_1_" version="1.1" viewBox="0 0 512 512" width="512px" xml:space="preserve" xmlns="http://www.w3.org/2000/svg" xmlns:xlink="http://www.w3.org/1999/xlink"><g id="Penguin"><g><path d="M289.854,443.445c2.299,0.91,4.7,1.354,7.082,1.354c4.51,0,8.953-1.594,12.506-4.643    c5.428-4.66,7.811-11.889,6.236-18.783l-21.029-97.764c-2.817-12.336-0.365-25.421,6.726-35.9    c6.612-9.775,10.108-21.178,10.108-32.979v-0.441c0-17.319-12.174-31.848-28.414-35.478c-4.068-0.91-7.938,2.179-7.937,6.347l0,0    c0,3.026,2.083,5.675,5.037,6.327c10.462,2.31,18.313,11.657,18.313,22.804v0.441c0,9.101-2.657,18.03-7.779,25.552    c-9.176,13.477-12.357,30.334-8.746,46.143l21.029,97.764c0.754,3.303-1.156,5.369-2.014,6.104    c-0.855,0.735-3.189,2.31-6.338,1.064c-22-8.7-38.731-26.619-45.903-49.163l-21.619-67.954    c-3.428-10.774-4.477-22.21-3.097-33.407c0.417-3.385-1.806-6.527-5.148-7.205c-3.696-0.749-7.28,1.791-7.745,5.533    c-1.622,13.077-0.403,26.436,3.601,39.021l21.619,67.954C244.704,412.414,264.207,433.303,289.854,443.445z"/><path d="M228.708,481.819c0.667,0.021,1.336,0.034,2.007,0.034h156.807c4.506,0,8.729-2.596,10.416-6.773    c1.904-4.714,0.334-10.006-3.734-12.923l-0.904-0.648c-28.309-20.3-45.098-52.998-45.098-87.832V163.973    c0-16.907-6.443-33.178-18.018-45.502l-0.401-0.428c-3.374-3.591-4.971-8.319-4.379-12.97c0.657-5.163,0.701-10.428,0.132-15.648    c-1.945-17.829-10.761-33.778-24.822-44.912c-14.061-11.131-31.615-16.05-49.424-13.853    c-16.927,2.089-32.263,10.574-43.182,23.891c-5.003,6.102-8.813,12.918-11.366,20.143h-37.487l-0.151,0.002    c-12.91,0.3-22.806,3.993-29.414,10.977c-8.018,8.473-7.939,18.415-7.903,19.521l0.201,6.292h51.405c3.59,0,6.5-2.91,6.5-6.5    s-2.91-6.5-6.5-6.5h-36.995c2.395-4.758,8.32-10.432,22.934-10.791h34.261c-0.624,4.564-0.787,9.211-0.434,13.885    c0.439,5.826,1.627,11.548,3.531,17.007c1.251,3.584,2.821,7.082,4.669,10.396c1.494,2.68,2.573,5.545,3.209,8.519    c1.848,8.638-0.187,17.488-5.581,24.28l-4.701,5.92l-0.116,0.151c-1.668,2.232-3.959,4.663-6.611,7.478    c-4.885,5.184-10.964,11.635-17.054,20.938c-2.748,4.197-5.308,8.703-7.611,13.391c-13.849,28.201-20.582,66.826-20.582,118.083    c0,41.182,10.856,81.887,32.268,120.985c4.378,7.994,10.342,14.798,17.377,20.127H127.06c1.151-4.568,3.516-8.758,6.929-12.178    c4.997-4.989,11.633-7.737,18.684-7.737h3.802c3.59,0,6.5-2.91,6.5-6.5s-2.91-6.5-6.5-6.5h-3.802    c-10.52,0-20.417,4.098-27.877,11.546c-7.44,7.452-11.538,17.35-11.538,27.869v6.5h115.45V481.819z M185.982,442.482    c-20.352-37.162-30.67-75.768-30.67-114.741c0-49.225,6.297-85.976,19.25-112.353c2.068-4.211,4.362-8.249,6.819-12.001    c5.461-8.342,10.868-14.081,15.638-19.143c2.897-3.075,5.403-5.734,7.502-8.53l4.645-5.849    c7.819-9.846,10.775-22.633,8.113-35.083c-0.906-4.239-2.443-8.32-4.567-12.129c-1.483-2.662-2.745-5.472-3.75-8.35    c-1.532-4.392-2.488-9.002-2.843-13.702c-0.331-4.388-0.094-8.715,0.646-12.908h22.26c3.361,0,6.086-2.725,6.086-6.085l0,0    c0-7.677,5.888-14.293,13.556-14.671c8.197-0.405,14.995,6.147,14.995,14.257v3.311l2.678,1.947    c2.578,1.874,15.473,12.126,16.17,29.979c0.234,6.023-0.982,11.884-3.617,17.421c-3.451,7.252-8.51,12.2-11.026,14.372h-7.931    c-7.806,0-13.835-1.12-19.033-8.172c-0.098-0.132-0.211-0.281-0.335-0.443c-1.99-2.579-5.591-3.281-8.406-1.643l0,0    c-3.465,2.016-4.286,6.656-1.739,9.751c0.875,1.063,1.681,1.973,2.225,2.471c9.579,8.79,15.618,11.035,27.289,11.035h14.92    c2.05,0,3.982,0.801,5.434,2.246c0.399,0.399,0.77,0.868,1.102,1.396c0.474,0.755,0.816,1.596,0.989,2.47    c0.977,4.924-2.778,9.257-7.524,9.257h-12.74c-6.72,0-13.049,2.62-17.832,7.39c-4.632,4.645-7.237,10.766-7.372,17.288    c-0.259,1.654-1.295,8.005-3.042,15.38c-2.589,10.981-5.514,19.158-8.454,23.64c-1.569,2.386-3.033,4.861-4.38,7.406    c-1.782,3.368-0.362,7.538,3.133,9.057c3.128,1.359,6.753,0.057,8.349-2.959c1.157-2.187,2.415-4.315,3.764-6.367    c3.82-5.824,7.266-15.175,10.24-27.787c2.159-9.118,3.269-16.576,3.315-16.889l0.07-0.472v-0.477c0-3.255,1.272-6.324,3.57-8.627    c2.316-2.31,5.386-3.583,8.64-3.583h12.181c11.365,0,21.024-8.931,21.235-20.294c0.085-4.517-1.274-8.853-3.912-12.506    c-0.649-0.9-1.369-1.747-2.146-2.525c-1.673-1.666-3.589-2.99-5.653-3.985c2.366-2.972,4.783-6.583,6.812-10.844    c3.549-7.456,5.187-15.368,4.869-23.515c-0.787-20.144-13.146-33.007-19.035-38.021c-1.631-13.494-13.152-23.984-27.078-23.984    c-12.801,0-23.57,8.863-26.492,20.775h-12.036c7.561-16.413,23.212-28.81,42.022-31.131c14.331-1.768,28.452,2.188,39.762,11.143    c11.313,8.956,18.404,21.787,19.969,36.129c0.459,4.207,0.424,8.446-0.104,12.599c-1.083,8.514,1.761,17.084,7.8,23.511    l0.401,0.427c9.31,9.914,14.493,23.003,14.493,36.603v209.703c0,37.137,17.189,72.322,46.236,95.178H230.715    C212.03,468.854,194.889,458.748,185.982,442.482z"/><circle cx="249.083" cy="81.732" r="6.305"/></g></g></svg>