<?xml version="1.0" ?><svg enable-background="new 0 0 515.91 728.5" height="512" id="Layer_1" version="1.1" viewBox="0 0 512.00003 512" width="512" xml:space="preserve" xmlns="http://www.w3.org/2000/svg" xmlns:cc="http://creativecommons.org/ns#" xmlns:dc="http://purl.org/dc/elements/1.1/" xmlns:inkscape="http://www.inkscape.org/namespaces/inkscape" xmlns:rdf="http://www.w3.org/1999/02/22-rdf-syntax-ns#" xmlns:sodipodi="http://sodipodi.sourceforge.net/DTD/sodipodi-0.dtd" xmlns:svg="http://www.w3.org/2000/svg"><defs id="defs7"/><g id="g4367" transform="translate(136.1786,108.25001)"><path d="m -733.62329,72.267944 c 0,203.804876 -165.21649,369.021366 -369.02141,369.021366 -203.8048,0 -369.0213,-165.21649 -369.0213,-369.021366 0,-203.804874 165.2165,-369.021364 369.0213,-369.021364 203.80492,0 369.02141,165.21649 369.02141,369.021364 z" id="path5016" style="fill:#000000;fill-opacity:1;fill-rule:nonzero;stroke:none" transform="matrix(0.69372682,0,0,0.69372682,884.75558,97.615782)"/><path d="m 119.8403,-76.250028 c -123.7091113,0 -224.01892,100.3096 -224.01892,224.018808 0,123.70921 100.3098087,223.98121 224.01892,223.98121 123.7091,0 223.98111,-100.272 223.98111,-223.98121 0,-123.709208 -100.27201,-224.018808 -223.98111,-224.018808 z m 14.8519,24.703001 c 58.3166,0.079 55.0732,61.573199 54.7074,94.713499 -0.2364,21.71391 11.7497,36.36511 24.0261,51.85001 10.9679,12.962398 25.3133,31.946098 33.539,53.692298 6.7024,17.719 9.347,37.3093 2.7072,57.0011 1.989,0.7551 3.9272,1.9157 5.828,3.5719 0.012,0.01 0.027,-0.01 0.038,0 4.7756,4.0666 6.2958,10.3508 7.6328,16.1679 1.3379,5.8205 2.5791,11.26361 5.1887,14.21271 l 0,0.038 c 7.9425,8.8165 11.3905,15.3978 11.0543,21.2814 -0.3366,5.8862 -4.6731,9.9232 -10.0391,13.1599 -10.7324,6.473 -26.946,11.3751 -36.6973,23.199 l -1.8799,-1.5416 1.8799,1.5792 c -10.2305,12.1751 -22.8759,19.1763 -34.7797,20.1158 -11.8882,0.9379 -23.0607,-4.5384 -29.0644,-16.5439 -0.012,-0.017 0.012,-0.058 0,-0.075 -0.8022,-1.5357 -1.4377,-3.1324 -1.8424,-4.8127 -15.4873,0.86 -28.9267,-3.8386 -39.7054,-2.9703 -15.88821,0.8748 -25.81591,4.7308 -34.854711,4.7751 -3.4931,7.6767 -10.2711,12.6374 -18.6495,14.5511 -11.5564,2.6395 -26.057,0.026 -40.3445,-7.4447 l 0,-0.038 c -13.3458,-7.0736 -30.2841003,-6.4124 -42.7884003,-9.0239 -6.2520997,-1.3059 -11.7854997,-3.6326 -14.4759997,-8.8736 -2.6847,-5.2302 -2.1968,-12.4365 1.6169,-22.8606 1.193,-3.7141 0.2861,-9.1716 -0.6016,-14.9646 -0.8879,-5.7934 -1.7416,-12.054 1.1656,-17.48391 0,-0.01 0,-0.027 0,-0.038 3.2114,-6.1624 8.5292,-8.6862 13.3477997,-10.4151 4.8169,-1.7281 9.18109998,-2.9095 12.2576,-5.9783 3.2928,-3.4835 6.2651003,-8.6643 10.2647003,-12.9343 0.5343,-0.5705 1.064,-1.1258 1.6545,-1.6544 -1.8845,-12.4266 0.1483,-25.5826 4.4365,-38.4645 9.0859,-27.2944 28.3006,-53.5096 41.9238,-69.709698 11.5954,-16.4827 15.0152,-29.7637 16.2055,-46.62361 0.9672,-23.055 -16.3274,-91.908998 48.841811,-97.157499 2.5785,-0.2056 5.0368,-0.3008 7.4073,-0.3008 z m 7.7455,51.06029945 c -3.3774,0.031 -6.1975,1.0671 -9.0991,3.27119995 -2.9018,2.204 -4.9903,4.9117 -6.6552,8.6854996 -1.665,3.7738 -2.3782,7.4776 -2.3312,11.8063 l 0,0.3384 c 0.028,1.2216 0.1145,2.3646 0.2632,3.4968 2.6183,0.6231 5.387,1.6456 8.3471,3.1207 -0.2027,-1.1707 -0.29,-2.3687 -0.2631,-3.6847 0,-0.095 0.021,-0.1683 0.038,-0.2632 0.08,-2.3944 0.4755,-4.4375 1.3159,-6.4672 0.8404,-2.0295 1.8699,-3.4831 3.2336,-4.6247 1.2997,-1.0881 2.5388,-1.57 3.9855,-1.5792 0.071,0 0.1537,-0.01 0.2256,0 1.5381,0.048 2.8139,0.6273 4.0983,1.88 1.2845,1.2527 2.1974,2.7573 2.8953,4.8503 0.666,1.9978 0.9879,3.9583 0.94,6.2416 0,0.1106 -0.038,0.1683 -0.038,0.2632 -0.08,2.3785 -0.5133,4.3841 -1.3537,6.4295 -0.5563,1.3541 -1.1952,2.4331 -1.9552,3.3464 2.0961,0.7273 4.6176,1.6415 7.8959,3.0456 0.4729,0.1945 0.9521,0.3908 1.3912,0.6015 1.2936,-1.5647 2.3679,-3.3738 3.3088,-5.5271 1.6491,-3.7739 2.4003,-7.4617 2.3688,-11.8063 -0.03,-0.1112 -0.038,-0.2274 -0.038,-0.3384 -0.08,-4.2337 -0.8762,-7.7833 -2.5567,-11.4303 -1.7126,-3.7419996 -3.8563,-6.4320996 -6.8057,-8.5726996 -2.903,-2.10719995 -5.7149,-3.08319995 -9.0238,-3.08319995 l -0.1881,0 z M 96.754089,3.1228724 c -2.426,0.1269 -4.4317,1.1388 -6.4295,3.1208 -1.9979,1.9821 -3.3685,4.3780996 -4.3992,7.7078996 -1.0305,3.3298 -1.4468,6.5602 -1.2409,10.3023 l 0,0.038 c 0.2221,3.7421 0.9737,6.9055 2.3688,10.0767 1.1782,2.6774 2.5593,4.699 4.2864,6.3167 0.7921,-0.5835 1.4583,-1.0842 2.0304,-1.5039 0.8921,-0.6555 1.3931,-1.0423 2.4816,-1.88 -0.1726,-0.1215 -0.3511,-0.2622 -0.5264,-0.4136 -1.0465,-0.9037 -1.8214,-2.0733 -2.5192,-3.7224 -0.6817,-1.6015 -1.0882,-3.1732 -1.2783,-5.0759 l 0,-0.2256 c -0.1744,-1.9662 -0.074,-3.6702 0.3383,-5.4144 0.4123,-1.7441 0.9702,-3.0736 1.8424,-4.136 0.872,-1.0624 1.8227,-1.597 2.9328,-1.6919 0.1042,-0.01 0.199,0 0.3009,0 0.9858,-0.01 1.8715,0.3465 2.8199,1.1655 1.046501,0.9039 1.843301,2.0575 2.556701,3.7224 0.6661,1.6015 1.088,3.1892 1.2784,5.076 0,0.079 -0.018,0.1462 0,0.2256 0.136,1.4206 0.103,2.6922 -0.075,3.9479 1.8179,-1.2005 3.912,-2.2684 6.279,-3.0831 0.4171,-0.1435 0.8442,-0.2903 1.2785,-0.4136 0.1235,-1.4329 0.1373,-2.9403 0.038,-4.512 -0.2062,-3.7421 -0.9359,-6.9054 -2.3312,-10.0767 -1.3954,-3.1711996 -3.0976,-5.4215996 -5.3016,-7.1814996 -2.0316,-1.6226 -3.971101,-2.3688 -6.166401,-2.3688 -0.1859,0 -0.3742,-0.01 -0.5639,0 z M 117.88509,29.028972 c -2.6725,0.011 -5.0414,0.5042 -7.1816,1.2408 -6.2171,2.1402 -10.3468,6.6124 -12.934201,9.0616 -0.5043,0.484 -1.1618,0.944 -2.7448,2.1055 -1.5932,1.1695 -4.0012,2.9091 -7.4448,5.4896 -3.0624,2.2954 -4.0658,5.2996 -3.0079,8.7983 1.0579,3.4986 4.4673,7.52741 10.6406,11.01671 l 0,0.038 c 3.8327,2.2505 6.434101,5.2564 9.437601,7.6704 3.0035,2.4137 6.3249,4.3007 11.8815,4.6247 6.52711,0.3775 11.32401,-1.5598 15.56621,-3.9856 4.2424,-2.4258 7.8676,-5.3895 11.9943,-6.7303 l 0,-0.038 c 8.4635,-2.6428 14.5038,-7.95191 16.3935,-13.00951 0.9448,-2.5286 0.9408,-4.9272 -0.188,-7.1439 -1.1288,-2.2166 -3.4711,-4.3257 -7.4071,-5.9408 -8.1808,-3.5037 -11.7525,-3.7612 -16.3183,-6.7303 -7.433,-4.7791 -13.5471,-6.4499 -18.64941,-6.4295 l -0.038,-0.038 z m 35.71961,21.1687 0.1505,2.7447 c -1.2551,0.075 -3.4397,1.0056 -6.016,2.444 -2.5762,1.4383 -5.6128,3.3389 -8.9487,5.264 -6.6719,3.85021 -14.5664,7.74551 -22.93581,7.74551 -8.3579,0 -14.9513,-3.8304 -19.702101,-7.59511 -2.3755,-1.8825 -4.3385,-3.7538 -5.7904,-5.1136 -0.726,-0.6799 -1.3265,-1.2398 -1.7673,-1.5792 -0.2713,-0.2095 -0.5168,-0.2703 -0.5639,-0.3008 -0.029,-0.019 0.04,-0.01 0.1128,-0.7144 l 0.075,-2.1056 c 1.0026,0 1.4687,0.4405 2.068,0.9024 0.5993,0.4618 1.2519,1.0735 1.9928,1.7672 1.4813,1.3874 3.3555,3.1828 5.6022,4.9632 4.493501,3.5608 10.474201,7.03111 17.972701,7.03111 7.48671,0 15.00001,-3.63041 21.54461,-7.40711 3.272,-1.8883 6.3013,-3.8024 8.9863,-5.3016 2.685,-1.4989 5.0174,-2.6132 7.2191,-2.7447 z m 7.4448,10.0015 c -3.2358,4.61711 -8.9408,8.55461 -16.0926,10.79111 -3.3847,1.1046 -6.9583,3.9476 -11.4303,6.5047 -4.4785,2.561 -9.9731,4.8144 -17.14551,4.3992 -6.1448,-0.3579 -10.2049,-2.6475 -13.4606,-5.264 -3.249501,-2.6114 -5.758701,-5.4775 -9.099201,-7.4447 -1.1418,-0.6492 -3.691,-2.3914 -4.4367,-2.9328 -1.4461,27.2739 -19.6447,61.519498 -28.3502,81.252898 -5.9767,14.2215 -9.5816,29.4224 -10.0015,44.33 -15.7123,-20.948 -4.2208,-47.8165 1.9176,-59.4451 6.8492,-12.7186 7.9049,-16.1885 6.2416,-14.9646 -6.1786,10.0783 -15.8209,26.1258 -19.5895,42.638 -1.9636,8.6025 -2.3596,17.3218 0.1881,25.3798 2.5472,8.057 8.0155,15.4901 17.747,21.5446 13.2462,8.1237 22.238,16.2579 27.5605,23.4621 5.321,7.20491 7.0019,13.50031 5.3391,17.97271 -0.8314,2.2363 -2.4961,3.9538 -4.8879,5.0383 -1.9232,0.8721 -4.3066,1.3536 -7.1063,1.3536 1.4233,1.7882 2.8551,3.5898 4.2487,5.4144 2.1825,2.8572 4.2806,5.7617 6.1288,8.6855 27.272201,18.6121 59.387511,11.4704 82.531211,-5.0383 2.3001,-7.9019 4.5863,-15.3897 4.9256,-20.9055 0.5551,-10.96941 1.1462,-20.72951 3.1582,-28.80131 2.0141,-8.0782 5.6238,-14.6435 12.2577,-18.2734 1.0638,-0.5822 2.1028,-1.0622 3.1584,-1.4288 0.074,-0.6823 0.179,-1.37 0.3008,-2.0304 1.9028,-12.6057 13.1694,-13.2092 27.2972,-6.9935 13.6213,6.163 18.7386,11.538 16.4311,18.8374 0.083,-0.01 0.1803,0 0.2632,0 0.8955,-0.018 1.8116,-0.034 2.7448,0 2.8333,-9.2087 -3.0535,-15.9663 -18.9879,-23.7254 -1.0708,-0.5069 -2.1178,-0.9589 -3.1584,-1.3912 2.1271,-8.6442 1.6814,-17.3865 -0.3008,-25.7182 -4.3468,-18.2717 -16.316,-34.4768 -25.4174,-42.5252 -1.6789,-0.069 -1.5067,1.4136 1.8802,4.7 8.3883,7.7196 26.7336,35.44 16.8069,61.1746 -2.8367,-0.7256 -5.4901,-1.0889 -7.8959,-1.0152 -3.7967,-20.9775 -12.578,-38.3911 -16.995,-46.586 -8.3098,-15.446 -21.2121,-47.082398 -26.771,-68.995308 z m 45.4204,125.432408 c -4.3736,0.02 -7.3887,2.2923 -8.0087,7.5576 -1.1575,7.7536 2.3179,18.0133 9.4375,19.8526 6.9768,1.9028 17.1736,-5.3163 19.5518,-9.8511 2.8226,-6.0095 -0.4152,-10.1168 -10.7535,-14.8895 -3.8411,-1.7184 -7.3303,-2.6835 -10.2271,-2.6696 z m -11.7311,14.1751 c -0.2359,0.1167 -0.4754,0.2454 -0.7145,0.376 -5.131,2.8078 -8.0116,7.8127 -9.8509,15.1903 -1.8393,7.3776 -2.454,16.9501 -3.008,27.89891 l 0,0.038 c -0.524,8.5454 -4.4199,19.0133 -7.1441,29.2526 -2.7237,10.2394 -4.0983,19.943 -0.8647,26.0942 l 0.038,0.038 0,0.038 c 5.2122,10.4615 14.042,14.7206 24.2893,13.9119 10.2474,-0.8087 21.8911,-7.068 31.4332,-18.4239 10.9894,-13.3111 28.1904,-18.3951 37.9005,-24.2518 4.8573,-2.9295 7.5004,-5.6164 7.7081,-9.2495 0.2076,-3.6329 -2.2626,-9.3262 -9.8512,-17.7471 l 0,-0.038 c -3.947,-4.4428 -5.0006,-10.66711 -6.3167,-16.39341 -1.3161,-5.7263 -2.8234,-10.831 -6.016,-13.5359 l -0.038,0 c -4.1546,-3.6336 -8.1992,-3.9525 -13.0471,-3.8352 -1.0464,0.025 -2.1316,0.068 -3.2337,0.1128 -5.5267,6.3537 -18.5944,14.1607 -27.6733,11.7687 -8.2964,-2.0928 -13.0266,-11.762 -13.6111,-21.2438 z m -166.754511,0.7144 c -4.3775,0.031 -7.2875,2.0904 -10.1895,5.1888 -3.4395,3.6718 -6.3897,8.8445 -10.3023003,12.9718 l 0,0.038 -0.038,0 c -4.2321,4.2414 -9.5803,5.5224 -14.0999,7.144 -4.5196997,1.6215 -8.1579997,3.3358 -10.6407997,8.12151 l -0.038,0.038 c -1.9392,3.6004 -1.4718,8.7594 -0.6016,14.4383 0.8704,5.6788 2.1687,11.7288 0.376,17.2582 l 0,0.038 0,0.075 c -3.6247,9.8845 -3.6234,15.6651 -1.9176,18.9879 1.7057,3.3228 5.4341,5.0895 11.1295997,6.2791 11.3881,2.3784 29.1436003,1.6087 44.0668003,9.5126 13.4886,7.0561 26.9986,9.3441 36.9604,7.0688 9.9646,-2.2759 16.4588,-8.5332 17.3335,-20.0405 l 0,-0.038 0,-0.038 c 0.6759,-6.7469 -4.5345,-15.5825 -11.2424,-24.3646 -6.7079,-8.7821 -14.5974,-17.3628 -18.3486,-25.1918 l 0,-0.038 c -4.6679,-10.02281 -9.2573,-19.06141 -14.1375,-25.68061 -4.88,-6.6192 -9.9082,-10.6632 -15.7166,-11.5431 -0.8529,-0.1289 -1.6864,-0.224 -2.4441,-0.2256 l -0.1503,0 z" id="path4846" style="fill:#ffffff;fill-opacity:1;fill-rule:nonzero;stroke:none"/></g></svg>